<svg xmlns="http://www.w3.org/2000/svg" width="32" height="32" viewBox="0 0 32 32">
  <defs>
    <linearGradient id="goldGradient" x1="0%" y1="0%" x2="100%" y2="100%">
      <stop offset="0%" style="stop-color:#F4E4A6;stop-opacity:1" />
      <stop offset="100%" style="stop-color:#D9C27B;stop-opacity:1" />
    </linearGradient>
  </defs>
  
  <!-- Background Circle -->
  <circle cx="16" cy="16" r="15" fill="#000000" stroke="url(#goldGradient)" stroke-width="2"/>
  
  <!-- Scissors Icon -->
  <g transform="translate(16,16)">
    <!-- Left blade -->
    <path d="M-6,-4 L-2,0 L-6,4 C-7,4 -8,3 -8,2 L-8,-2 C-8,-3 -7,-4 -6,-4 Z" fill="url(#goldGradient)"/>
    <!-- Right blade -->
    <path d="M6,-4 L2,0 L6,4 C7,4 8,3 8,2 L8,-2 C8,-3 7,-4 6,-4 Z" fill="url(#goldGradient)"/>
    <!-- Center screw -->
    <circle cx="0" cy="0" r="1.5" fill="url(#goldGradient)"/>
    <!-- Handle rings -->
    <circle cx="-5" cy="0" r="2" fill="none" stroke="url(#goldGradient)" stroke-width="1"/>
    <circle cx="5" cy="0" r="2" fill="none" stroke="url(#goldGradient)" stroke-width="1"/>
  </g>
</svg>
